<svg width="310" height="50" viewBox="0 0 310 50" fill="none" xmlns="http://www.w3.org/2000/svg">
<path fill-rule="evenodd" clip-rule="evenodd" d="M93.0388 9.51901C93.9217 7.22337 96.0886 5.70893 98.5071 5.69727C100.926 5.70893 103.092 7.22337 103.975 9.51901L116.595 42.7751H110.79C110.265 42.8003 109.745 42.656 109.305 42.3627C108.942 42.1067 108.67 41.7395 108.527 41.3144L106.168 34.1463H90.8712L88.4937 41.3018C88.1284 42.2162 87.2448 42.8034 86.2768 42.7751H80.4102L93.0388 9.51901ZM96.1917 18.0695L92.4248 29.4434H104.584L100.817 18.0128C100.704 17.6778 100.581 17.3087 100.45 16.9114C100.319 16.5173 100.179 16.0954 100.03 15.6517C99.7302 14.7608 99.4338 13.7818 99.1466 12.7429L98.4766 10.3378L97.8591 12.7555C97.5874 13.8101 97.3064 14.7892 97.0161 15.699C96.7259 16.6088 96.4511 17.3958 96.1917 18.0695Z" fill="#040404"/>
<path fill-rule="evenodd" clip-rule="evenodd" d="M146.525 27.9728C147.076 28.2493 147.592 28.5919 148.061 28.9929C148.536 29.4067 148.941 29.8948 149.261 30.4382L156.8 42.7779H149.974C148.73 42.7779 147.873 42.3371 147.351 41.4334L140.981 30.2713C140.691 29.7257 140.256 29.2712 139.724 28.9583C139.128 28.6594 138.465 28.5195 137.799 28.5521H134.852V42.7779H130.166C128.593 42.7779 127.318 41.5012 127.316 39.9252V5.70206H139.112C141.443 5.65648 143.769 5.93625 146.023 6.53331C147.671 6.97425 149.213 7.7431 150.558 8.79407C151.662 9.67874 152.527 10.8276 153.071 12.1348C153.608 13.499 153.876 14.954 153.863 16.4202C153.87 17.5499 153.712 18.6745 153.392 19.7578C153.086 20.7828 152.618 21.7522 152.007 22.6294C151.372 23.5307 150.604 24.3301 149.729 25.0004C148.772 25.7264 147.714 26.3067 146.588 26.7227L145.137 27.2769L146.525 27.9728ZM139.116 23.7727C140.245 23.7968 141.37 23.6264 142.442 23.2689C143.322 22.9636 144.123 22.4668 144.789 21.8142C145.401 21.2033 145.863 20.4571 146.136 19.6353C146.411 18.8027 146.548 17.9305 146.542 17.0534C146.542 15.1673 145.876 13.6182 144.657 12.5791C143.438 11.54 141.572 11.0047 139.116 11.0047H134.853V23.7727H139.116Z" fill="#040404"/>
<path d="M162.16 11.403H173.064V39.944C173.064 41.5091 174.347 42.7779 175.929 42.7779H180.705V11.403H185.875C187.405 11.403 188.872 10.8018 189.954 9.7318C191.036 8.66177 191.644 7.21051 191.644 5.69727H168.585C165.286 5.70057 162.517 8.15897 162.16 11.403Z" fill="#040404"/>
<path d="M201.027 11.8591V38.6992C201.027 40.2204 202.273 41.4536 203.809 41.4536H218.716C221.529 41.4536 223.81 39.1952 223.81 36.4093V36.1542H208.438V26.0141H215.115C216.467 26.0149 217.763 25.4838 218.719 24.5377C219.675 23.5916 220.212 22.3081 220.212 20.9698H208.438V10.9966H218.458C219.878 10.9966 221.239 10.4383 222.243 9.44449C223.246 8.45066 223.81 7.10275 223.81 5.69727H207.248C203.812 5.69894 201.027 8.45721 201.027 11.8591Z" fill="#040404"/>
<path fill-rule="evenodd" clip-rule="evenodd" d="M255.057 27.9728C255.607 28.2516 256.122 28.594 256.592 28.993C257.076 29.4061 257.49 29.894 257.82 30.4382L265.355 42.7779H258.517C257.277 42.7779 256.42 42.3371 255.898 41.4334L249.531 30.2682C249.241 29.7241 248.806 29.2709 248.276 28.9584C247.679 28.6595 247.017 28.5196 246.351 28.5522H243.406V42.7748H238.697C237.136 42.7748 235.871 41.506 235.871 39.941V5.70217H247.657C249.987 5.65602 252.311 5.9358 254.564 6.53342C256.213 6.97048 257.757 7.73615 259.104 8.78473C260.208 9.66872 261.072 10.8178 261.616 12.1255C262.151 13.493 262.417 14.9514 262.4 16.4203C262.406 17.5499 262.247 18.6742 261.93 19.7579C261.621 20.7833 261.152 21.7527 260.539 22.6295C259.904 23.5316 259.135 24.3311 258.259 25.0005C257.303 25.7266 256.245 26.307 255.12 26.7228L253.669 27.277L255.057 27.9728ZM247.665 23.7727C248.794 23.7967 249.918 23.6263 250.99 23.2689C251.87 22.9632 252.672 22.4665 253.338 21.8142C253.949 21.2024 254.411 20.4565 254.685 19.6353C254.96 18.8027 255.097 17.9304 255.09 17.0534C255.09 15.1673 254.424 13.6182 253.206 12.5791C251.988 11.54 250.123 11.0047 247.668 11.0047H243.408V23.7727H247.665Z" fill="#040404"/>
<path fill-rule="evenodd" clip-rule="evenodd" d="M290.65 5.69727C293.137 5.69727 295.369 7.21262 296.27 9.51286L309.579 42.7745H303.3C302.759 42.8025 302.223 42.658 301.771 42.362C301.397 42.107 301.114 41.7395 300.965 41.3136L298.519 34.1442H282.801L280.358 41.301C279.983 42.2144 279.077 42.8015 278.083 42.7745H272.055L285.031 9.51286C285.932 7.21262 288.164 5.69727 290.65 5.69727ZM288.269 18.0649L284.398 29.4408H296.886L293.016 18.0082L292.207 15.6468C291.899 14.7526 291.594 13.7734 291.299 12.7375L290.617 10.3288L289.982 12.7501C289.706 13.8049 289.414 14.7841 289.116 15.694C288.818 16.604 288.536 17.3911 288.269 18.0649Z" fill="#040404"/>
<path d="M47.0503 25.5625H38.8633L47.9485 42.3774C49.7771 45.891 53.2739 48.0758 57.0691 48.0758H65.6667L56.5012 31.0891C54.7144 27.7185 51.0588 25.5808 47.0503 25.5625Z" fill="#469CEB"/>
<path d="M22.9292 16.292H30.8239L17.0855 43.4884C15.3222 47.1334 11.9503 49.3997 8.29065 49.3997H0L13.8188 22.0157C15.5439 18.5239 19.067 16.3104 22.9292 16.292Z" fill="#2457BA"/>
<path d="M33.6489 0.399414H25.4609L34.5408 17.2113C36.3729 20.7279 39.8669 22.9127 43.6657 22.9127H52.2643L43.0978 5.92603C41.3107 2.5569 37.6565 0.419556 33.6489 0.399414Z" fill="#9FD2F8"/>
</svg>
