<svg width="139" height="51" viewBox="0 0 139 51" fill="none" xmlns="http://www.w3.org/2000/svg">
    <g clip-path="url(#clip0_7032_94185)">
        <path d="M22.7966 50.5633V28.8519H36.0157V32.3854H26.9481V37.7404H34.3769V41.274H26.9481V47.0661H36.4527V50.5997H22.7966V50.5633Z" fill="black"/>
        <path d="M46.467 50.5637H42.5341L37.3994 35.2637H41.5144L44.6098 45.3909L44.719 46.0466L44.8283 45.3909L48.2514 35.2637H52.3664L46.467 50.5637Z" fill="black"/>
        <path d="M56.5903 32.4223C55.3885 32.4223 54.3689 31.2202 54.3689 29.763C54.3689 28.2695 55.3885 27.1038 56.5903 27.1038C57.792 27.1038 58.8117 28.3059 58.8117 29.763C58.7752 31.2566 57.792 32.4223 56.5903 32.4223ZM54.5874 50.5638V35.2638H58.5203V50.5638H54.5874Z" fill="black"/>
        <path d="M71.6301 50.5633V48.4869C71.0839 49.3612 70.7926 49.689 70.1007 50.1262C69.2267 50.6726 68.2435 51.0005 67.2238 51.0005C63.6186 51.0005 60.9238 47.7583 60.9238 43.3505C60.9238 38.6147 64.1649 34.7897 68.2434 34.7897C68.6804 34.7897 69.1174 34.8626 69.5908 34.9719C70.4284 35.154 70.7926 35.2997 71.6301 35.8826V26.5569H75.5631V50.5633H71.6301ZM71.6301 41.4197C71.6301 40.5819 71.5209 39.7805 71.4481 39.4526C71.1931 38.6147 70.1007 38.0319 68.8625 38.0319C66.6776 38.0319 65.0753 40.1812 65.0753 43.059C65.0753 45.8276 66.3498 47.7583 68.2434 47.7583C69.4452 47.7583 70.6833 46.9205 71.6301 45.4633V41.4197Z" fill="black"/>
        <path d="M90.3124 49.9079C88.7101 50.6365 87.0714 51.0008 85.287 51.0008C80.735 51.0008 77.8945 48.0136 77.8945 43.3143C77.8945 38.4693 81.172 34.8265 85.5783 34.8265C89.3656 34.8265 91.9875 37.7043 91.9875 41.8572V43.5329H81.8639C81.9367 44.8079 82.046 45.3543 82.3737 45.9736C83.0292 47.1029 84.3402 47.8315 85.7968 47.8315C86.3795 47.8315 86.9985 47.7586 87.6176 47.5765C88.528 47.3215 89.1471 47.0301 90.5309 46.1193L91.9875 49.1065C91.2228 49.4708 90.6766 49.7622 90.3124 49.9079ZM85.287 37.8136C83.539 37.8136 82.3737 39.0158 82.046 41.0558H88.0182C87.9089 38.7243 87.1078 37.8136 85.287 37.8136Z" fill="black"/>
        <path d="M104.187 50.5632V40.7275C104.187 38.8332 103.859 38.1411 102.912 38.1411C102.075 38.1411 100.946 38.9789 99.2343 40.8004L98.7244 41.3468V50.5632H94.7915V35.2632H98.7244V37.8132C100.582 35.8097 102.075 34.9718 104.041 34.9718C106.809 34.9718 108.193 36.4289 108.193 39.3068V50.5632H104.187Z" fill="black"/>
        <path d="M122.941 50.126C121.521 50.7089 119.991 51.0003 118.462 51.0003C113.728 51.0003 110.669 47.8675 110.669 43.0589C110.669 38.1046 113.91 34.7896 118.789 34.7896C119.627 34.7896 120.465 34.8989 121.302 35.0446C122.431 35.2996 122.941 35.5546 124.215 36.2832L122.322 39.2703C121.157 38.396 120.428 38.0682 119.226 38.0682C116.641 38.0682 114.784 40.1082 114.784 42.986C114.784 45.7182 116.422 47.6125 118.789 47.6125C120.1 47.6125 121.047 47.2846 122.722 46.301L124.179 49.5067C123.633 49.7982 123.232 49.9803 122.941 50.126Z" fill="black"/>
        <path d="M137.362 49.9079C135.759 50.6365 134.121 51.0008 132.336 51.0008C127.784 51.0008 124.944 48.0136 124.944 43.3143C124.944 38.4693 128.221 34.8265 132.628 34.8265C136.415 34.8265 139.037 37.7043 139.037 41.8572V43.5329H128.913C128.986 44.8079 129.095 45.3543 129.423 45.9736C130.079 47.1029 131.389 47.8315 132.846 47.8315C133.429 47.8315 134.048 47.7586 134.667 47.5765C135.577 47.3215 136.196 47.0301 137.58 46.1193L139.037 49.1065C138.272 49.4708 137.726 49.7622 137.362 49.9079ZM132.336 37.8136C130.588 37.8136 129.423 39.0158 129.095 41.0558H135.068C134.958 38.7243 134.194 37.8136 132.336 37.8136Z" fill="black"/>
        <path d="M39.2199 22.0756H26.5835V21.4563C28.5864 21.3106 29.1326 20.7641 29.1326 19.0884V10.4913C29.1326 8.59699 28.7685 8.12342 27.0933 7.83199V7.21271H38.6008L39.0014 10.6006L38.3823 10.8191C37.2898 8.77914 36.5979 8.30557 34.3765 8.23271L31.6089 8.15985V13.9156L33.7575 13.8063C35.3598 13.7334 35.7968 13.3327 36.2337 11.6206H36.8528V17.0484H36.2337C35.7603 15.3727 35.2505 14.972 33.7575 14.8991L31.6089 14.7899V18.9427C31.6089 20.8006 31.9731 21.0191 34.5222 21.0191C36.9257 21.0191 37.8725 20.4363 39.2927 18.0684L39.9118 18.2506L39.2199 22.0756Z" fill="#FF3300"/>
        <path d="M64.5287 22.0391V21.4198C65.6212 21.2013 65.9489 20.837 65.9489 19.7806V19.562L65.0749 10.0177L59.6125 22.6584L54.1865 10.2363L53.3854 17.7041C53.3126 18.3234 53.2761 18.8334 53.2761 19.2341C53.2761 20.6184 53.8588 21.1284 55.5339 21.4198V22.0391H49.1611V21.4198C50.8363 21.0191 51.4189 20.5091 51.6374 19.1613L52.8756 11.4384C53.0212 10.3456 53.0941 9.61699 53.0941 9.25271C53.0941 8.30556 52.4386 7.86842 50.9819 7.83199V7.21271H55.4975L60.268 17.8863L64.9293 7.21271H69.4449V7.83199C67.9154 7.90485 67.4056 8.23271 67.4056 9.25271C67.4056 9.39842 67.4056 9.61699 67.442 9.83556L68.4616 19.8898C68.5709 20.9463 68.9351 21.2741 70.1004 21.4198V22.0391H64.5287Z" fill="#FF3300"/>
        <path d="M39.366 27.0304C42.607 25.5369 43.918 23.3876 43.918 20.8012L43.8451 10.2005C43.8087 8.52474 43.2625 7.97831 41.2232 7.79617V7.17688H48.8341V7.90545C46.9769 8.08759 46.4671 8.56117 46.4307 10.2369L46.2486 20.0362C46.1758 24.4805 43.6995 26.9212 39.6937 27.4312L39.366 27.0304Z" fill="#FF3300"/>
        <path d="M25.5274 7.17681C22.3592 1.20252 15.1488 -1.56605 8.66679 0.911096C1.71133 3.60681 -1.78461 11.4389 0.910175 18.4332C3.60496 25.4275 11.4344 28.8882 18.4263 26.1925C18.4627 26.1925 18.4991 26.1561 18.5355 26.1561V25.5732C12.272 27.9047 5.2801 24.7718 2.84023 18.5061C0.436767 12.2404 3.56855 5.17324 9.86852 2.73252C15.2581 0.656096 21.1939 2.65967 24.3257 7.21324H18.5355V7.83252C20.5748 8.08752 21.1211 8.67038 21.1939 10.3825L21.4488 18.7611L11.6165 7.21324H7.50148V7.83252C9.65003 8.48824 10.1234 9.21681 10.1234 11.6211L9.75927 18.9797C9.68644 20.7282 9.1402 21.2747 7.1009 21.4204V22.0397H14.4569V21.4204C12.272 21.3475 11.6165 20.6918 11.6165 18.9797L11.4344 10.4554L21.6673 22.5497L22.687 21.7118L23.0875 10.3825C23.124 8.67038 23.6338 8.12395 25.6003 7.83252L25.5274 7.17681Z" fill="#FF3300"/>
    </g>
    <defs>
        <clipPath id="clip0_7032_94185">
            <rect width="139" height="51" fill="white"/>
        </clipPath>
    </defs>
</svg>
